<svg id="Group_1376" data-name="Group 1376" xmlns="http://www.w3.org/2000/svg" xmlns:xlink="http://www.w3.org/1999/xlink" width="93.982" height="68.52" viewBox="0 0 93.982 68.52">
    <defs>
        <clipPath id="clip-path">
            <rect id="Rectangle_668" data-name="Rectangle 668" width="93.982" height="68.52" fill="none"/>
        </clipPath>
    </defs>
    <path id="Path_451" data-name="Path 451" d="M76.054,66.192l3.53-3.8L103.779,7.485l12.37,28.229-1.331,3.036-1.97,1.3-3.95-.661-2.3-3.679-1.082-2.083h-2.578l-1.807,3.541L89.552,62.029,86.8,64.678,83.33,66.027Z" transform="translate(-51.931 -5.111)" fill="#00b7c4"/>
    <g id="Group_1363" data-name="Group 1363">
        <g id="Group_1362" data-name="Group 1362" clip-path="url(#clip-path)">
            <path id="Path_452" data-name="Path 452" d="M189.072,66.192s10.8,2.825,15.292-7.165,18.154-41.491,18.154-41.491.3-7.514-5.41-10.051l-23.471,52.97s-.566,5.448-4.565,5.737" transform="translate(-129.101 -5.111)" fill="#00b7c4"/>
            <path id="Path_453" data-name="Path 453" d="M9.112,3.87l11.715,29.6a4.275,4.275,0,0,0,7.994-.068L40.83,7.359l1.821-3.744A7.12,7.12,0,0,1,48.468,2.36l5.05,1.51L28.777,59.694c-1.42,3.623-8.734,3.624-10.15,0L2.768,15.923C1.5,10.213,4.037,5.138,9.112,3.87" transform="translate(-1.669 -1.495)" fill="#00e6f7"/>
            <path id="Path_454" data-name="Path 454" d="M145.781,40.067,152.442,59.1c1.416,3.624,8.73,3.623,10.15,0l24.74-56.142L182.6,1.446a7.3,7.3,0,0,0-5.817,1.572l-2.138,3.744L162.636,32.808a4.275,4.275,0,0,1-7.994.068l-1.1-2.81c-.738-1.881-3.077-1.578-3.835.3l-4.24,9.388" transform="translate(-99.325 -0.899)" fill="#00c6d4"/>
            <path id="Path_455" data-name="Path 455" d="M23.464,7.485,34.731,37.061a4.648,4.648,0,0,0,8.573.275l1.448-3.8" transform="translate(-16.022 -5.111)" fill="#00d1ed"/>
            <path id="Path_456" data-name="Path 456" d="M163.464,7.485c3.387,6.6,7.36,15.2,10.022,22.125l2.348,6.1" transform="translate(-111.616 -5.111)" fill="none" stroke="#00b7c4" stroke-linecap="round" stroke-linejoin="round" stroke-width="1"/>
            <path id="Path_457" data-name="Path 457" d="M105.615,62.27c7.511-.039,13.223,1.9,17.664-7.93l10.652-24.045,6.455-14.833c1.959-4.5-.613-8.7-4.42-11.871-2.855-2.22-9.933-3.21-12.192,1.9L111.319,33.6a4.415,4.415,0,0,1-8.27-.2l-1.458-3.137a1.924,1.924,0,0,0-3.5.03L87.437,54.34C83,64.173,77.284,62.23,69.773,62.27" transform="translate(-47.642 -1.216)" fill="none" stroke="#00c6d4" stroke-linecap="round" stroke-linejoin="round" stroke-width="1"/>
            <path id="Path_458" data-name="Path 458" d="M28.869,58.5a6.022,6.022,0,0,1-5.556,3.8,5.838,5.838,0,0,1-5.486-3.735L2.4,15.735A9.132,9.132,0,0,1,5.756,4.89,10.277,10.277,0,0,1,21.176,9.745L29.383,31.5,40.872,5.494C43.131.38,50.209,1.369,53.064,3.59Z" transform="translate(-1.216 -1.216)" fill="none" stroke="#00e6f7" stroke-linecap="round" stroke-linejoin="round" stroke-width="1"/>
            <path id="Path_459" data-name="Path 459" d="M187.332,7.485,163.138,62.391a6.022,6.022,0,0,1-5.556,3.8,5.837,5.837,0,0,1-5.486-3.736l-6.631-18.5" transform="translate(-99.325 -5.111)" fill="none" stroke="#00c6d4" stroke-linecap="round" stroke-linejoin="round" stroke-width="1"/>
            <path id="Path_460" data-name="Path 460" d="M22.571,4.586s7.818-2.535,11.946,4.052,9.516,22.52,9.516,22.52-1.974,6.583-5.767,6.561-5.017-4.34-5.017-4.34Z" transform="translate(-15.339 -2.775)" fill="#00d1ed"/>
        </g>
    </g>
</svg>
