<?xml version="1.0" encoding="utf-8"?>
<!-- Generator: Adobe Illustrator 26.2.0, SVG Export Plug-In . SVG Version: 6.00 Build 0)  -->
<svg version="1.1" xmlns="http://www.w3.org/2000/svg" xmlns:xlink="http://www.w3.org/1999/xlink" x="0px" y="0px"
	 viewBox="0 0 500 500" style="enable-background:new 0 0 500 500;" xml:space="preserve">
<style type="text/css">
	.st0{display:none;}
	.st1{stroke:#000000;stroke-width:2;stroke-miterlimit:10;}
	.st2{fill:none;stroke:#000000;stroke-width:4;stroke-linecap:round;stroke-linejoin:round;stroke-miterlimit:10;}
	
		.st3{display:inline;fill:none;stroke:#000000;stroke-width:7.8708;stroke-linecap:round;stroke-linejoin:round;stroke-miterlimit:10;}
	.st4{display:inline;}
	.st5{fill:none;stroke:#000000;stroke-width:7.8708;stroke-linecap:round;stroke-linejoin:round;stroke-miterlimit:10;}
	.st6{fill:none;stroke:#FFFFFF;stroke-width:4;stroke-miterlimit:10;}
	.st7{fill:none;stroke:#FFFFFF;stroke-width:4;stroke-linecap:round;stroke-linejoin:round;stroke-miterlimit:10;}
	.st8{fill:none;stroke:#FFFFFF;stroke-width:3;stroke-linecap:round;stroke-linejoin:round;stroke-miterlimit:10;}
	.st9{fill:none;stroke:#FFFFFF;stroke-width:3;stroke-miterlimit:10;}
	.st10{fill:#FFFFFF;stroke:#FFFFFF;stroke-width:4;stroke-linecap:round;stroke-linejoin:round;stroke-miterlimit:10;}
	.st11{fill:none;stroke:#00AFD4;stroke-width:3;stroke-linecap:round;stroke-linejoin:round;stroke-miterlimit:10;}
	.st12{fill:none;stroke:#00AFD4;stroke-width:3;stroke-miterlimit:10;}
	.st13{fill:#00AFD4;stroke:#00AFD4;stroke-width:4;stroke-linecap:round;stroke-linejoin:round;stroke-miterlimit:10;}
	.st14{fill:none;stroke:#000000;stroke-width:5.6909;stroke-linecap:round;stroke-linejoin:round;stroke-miterlimit:10;}
	.st15{fill:none;stroke:#000000;stroke-width:5.6909;stroke-miterlimit:10;}
</style>
<g id="Layer_1">
	<g id="eIOX1J_00000042721955575215417650000004037261360617540763_" class="st0">
		
			<image style="display:inline;overflow:visible;" width="428" height="428" id="eIOX1J" xlink:href="6DCB215166FF5991.jpg"  transform="matrix(1 0 0 1 -3520 46)">
		</image>
	</g>
	<rect x="-2790" y="-250" class="st1" width="1770" height="1000"/>
	<g>
		<path class="st2" d="M-3254,377.9h45.2c2,0,3.7-1.1,4.6-2.9l91.3-201h-43L-3254,377.9z"/>
		<g>
			<path class="st2" d="M-3286.7,136L-3402,378l47.9-0.1c1.2,0,2.3-0.7,2.7-1.8l60.5-133.5c1.6-3.7,6.7-4,8.8-0.6l27.1,47.2
				c1.2,2,4.3,1.9,5.3-0.3l19.6-44.7l-57-108.2h-38.1c-2,0-3.8,1.2-4.6,3l-64.7,150.1c-1,2.3-4.3,2.4-5.4,0.1L-3470,137"/>
			<path class="st2" d="M-3375,244l-50.1-105.1c-0.8-1.7-2.6-2.9-4.5-2.9l-40.8,1l-26.8,35.6c-1.1,1.5-1.3,3.5-0.5,5.2L-3402,378"/>
		</g>
		<polyline class="st2" points="-3156,174 -3181,137 -3230,244.2 		"/>
		<line class="st2" x1="-3306.9" y1="280.2" x2="-3254" y2="378"/>
		<path class="st2" d="M-3113,174l-25.6-35c-0.9-1.3-2.4-2-4-2h-38.4"/>
	</g>
	<g class="st0">
		<path class="st3" d="M-3205.2,535.8h75.2c3.3,0,6.2-2.7,7.6-6.8l151.9-467.6h-71.6L-3205.2,535.8z"/>
		<g class="st4">
			<path class="st5" d="M-3259.6-27l-191.9,563l79.8-0.2c2,0,3.8-1.6,4.6-4.2l100.7-310.5c2.7-8.6,11.2-9.4,14.7-1.4l45.1,109.8
				c2.1,4.7,7.1,4.3,8.8-0.7l32.7-104.1L-3260.1-27h-63.5c-3.3,0-6.3,2.7-7.6,6.9l-107.6,349.3c-1.7,5.4-7.2,5.5-9.1,0.1
				l-116.9-353.9"/>
			<path class="st5" d="M-3406.6,224.3l-83.3-244.6c-1.4-4.1-4.3-6.6-7.5-6.6l-67.9,2.3l-44.6,82.8c-1.9,3.5-2.2,8.1-0.9,12
				l159.3,465.8"/>
		</g>
		<polyline class="st3" points="-3042.1,61.4 -3083.7,-24.7 -3165.2,224.8 		"/>
		<line class="st3" x1="-3293.2" y1="308.5" x2="-3205.2" y2="536"/>
		<path class="st3" d="M-2970.5,61.4l-42.6-81.3c-1.6-3-4.1-4.8-6.7-4.8h-63.9"/>
	</g>
	<g class="st0">
		<g class="st4">
			<path class="st6" d="M-2226.1,345.9h29.5c1.3,0,2.4-0.9,3-2.3l59.7-159.3"/>
			<g>
				<path class="st7" d="M-2322.8,345.9l31.3-0.1c0.8,0,1.5-0.6,1.8-1.4l39.5-105.8c1.1-2.9,4.4-3.2,5.8-0.5l17.7,37.4
					c0.8,1.6,2.8,1.5,3.4-0.2l12.8-35.5l-37.3-85.8h-24.9c-1.3,0-2.5,0.9-3,2.3l-42.3,119c-0.7,1.8-2.8,1.9-3.6,0.1L-2367,155"/>
				<path class="st6" d="M-2305.2,239.7l-32.7-83.4c-0.5-1.4-1.7-2.3-3-2.3l-26.7,0.8l-17.5,28.2c-0.7,1.2-0.9,2.8-0.4,4.1l62,158.7
					"/>
			</g>
			<line class="st6" x1="-2260.7" y1="268.4" x2="-2226.1" y2="345.9"/>
			<path class="st7" d="M-2133.9,184.2l-16.7-27.7c-0.6-1-1.6-1.6-2.6-1.6h-25.1l0,0"/>
			<line class="st7" x1="-2179" y1="155" x2="-2210.4" y2="239.9"/>
			<polyline class="st6" points="-2133.9,184.2 -2164.9,183.9 -2226.1,345.9 			"/>
			<line class="st6" x1="-2322.8" y1="345.9" x2="-2247.7" y2="154.1"/>
		</g>
		<g class="st4">
			
				<text transform="matrix(1 0 0 1 -2077.5088 294.454)" style="fill:#FFFFFF; font-family:'F37Ginger-Bold'; font-size:98.4022px; letter-spacing:7;">VISIONARY</text>
		</g>
	</g>
	<g>
		<g>
			<path class="st8" d="M-2186.2,197.1h29.5c1.3,0,2.4-0.9,3-2.3l57.2-159.5"/>
			<g>
				<path class="st8" d="M-2283,197.2l31.3-0.1c0.8,0,1.5-0.6,1.8-1.4l39.5-105.8c1.1-2.9,4.4-3.2,5.8-0.5l17.7,37.4
					c0.8,1.6,2.8,1.5,3.4-0.2l12.8-35.5l-37.3-85.8h-24.9c-1.3,0-2.5,0.9-3,2.3l-42.3,119c-0.7,1.8-2.8,1.9-3.6,0.1l-45.6-120.5"/>
				<path class="st9" d="M-2265.3,90.9L-2298,7.6c-0.5-1.4-1.7-2.3-3-2.3l-26.7,0.8l-17.5,28.2c-0.7,1.2-0.9,2.8-0.4,4.1l62,158.7"
					/>
			</g>
			<line class="st8" x1="-2220.8" y1="119.6" x2="-2186.2" y2="197.2"/>
			<path class="st8" d="M-2096.5,35.3l-16.7-27.7c-0.6-1-1.6-1.6-2.6-1.6h-25.1l0,0"/>
			<line class="st8" x1="-2141.6" y1="6.1" x2="-2170.5" y2="91.1"/>
			<polyline class="st8" points="-2096.5,35.3 -2127.5,35 -2186.2,197.1 			"/>
			<line class="st9" x1="-2282.9" y1="197.1" x2="-2207.8" y2="5.3"/>
			<polygon class="st10" points="-2345.8,36 -2327.6,6.1 -2280,128 -2232.7,5.3 -2207.8,5.3 -2282.9,197.1 			"/>
		</g>
		<g>
			
				<text transform="matrix(1 0 0 1 -2017.9932 151.6318)" style="fill:#FFFFFF; font-family:'F37Ginger-Bold'; font-size:117.9439px;">Visionary</text>
		</g>
	</g>
	<g>
		<g>
			<path class="st11" d="M-2186.2,531.1h29.5c1.3,0,2.4-0.9,3-2.3l57.2-159.5"/>
			<g>
				<path class="st11" d="M-2283,531.2l31.3-0.1c0.8,0,1.5-0.6,1.8-1.4l39.5-105.8c1.1-2.9,4.4-3.2,5.8-0.5l17.7,37.4
					c0.8,1.6,2.8,1.5,3.4-0.2l12.8-35.5l-37.3-85.8h-24.9c-1.3,0-2.5,0.9-3,2.3l-42.3,119c-0.7,1.8-2.8,1.9-3.6,0.1l-45.6-120.5"/>
				<path class="st12" d="M-2265.3,424.9l-32.7-83.4c-0.5-1.4-1.7-2.3-3-2.3l-26.7,0.8l-17.5,28.2c-0.7,1.2-0.9,2.8-0.4,4.1
					l62,158.7"/>
			</g>
			<line class="st11" x1="-2220.8" y1="453.6" x2="-2186.2" y2="531.2"/>
			<path class="st11" d="M-2096.5,369.3l-16.7-27.7c-0.6-1-1.6-1.6-2.6-1.6h-25.1l0,0"/>
			<line class="st11" x1="-2141.6" y1="340.1" x2="-2170.5" y2="425.1"/>
			<polyline class="st11" points="-2096.5,369.3 -2127.5,369 -2186.2,531.1 			"/>
			<line class="st12" x1="-2282.9" y1="531.1" x2="-2207.8" y2="339.3"/>
			<polygon class="st13" points="-2345.8,370 -2327.6,340.1 -2280,462 -2232.7,339.3 -2207.8,339.3 -2282.9,531.1 			"/>
		</g>
		<g>
			
				<text transform="matrix(1 0 0 1 -2017.9932 485.6318)" style="fill:#00AFD4; font-family:'F37Ginger-Bold'; font-size:117.9439px;">Visionary</text>
		</g>
	</g>
	<g>
		<path class="st14" d="M315.9,447.2h56c2.4,0,4.6-1.7,5.6-4.4L486,140.4"/>
		<g>
			<path class="st14" d="M132.4,447.3l59.5-0.1c1.5,0,2.8-1.1,3.4-2.7l75-200.7c2-5.5,8.3-6.1,10.9-0.9l33.6,71
				c1.5,3.1,5.3,2.8,6.5-0.4l24.4-67.3L275,83.4h-47.3c-2.4,0-4.7,1.7-5.7,4.4l-80.2,225.8c-1.3,3.5-5.4,3.6-6.8,0.1L48.6,85.2"/>
			<path class="st15" d="M165.8,245.8L103.8,87.7c-1-2.6-3.2-4.3-5.6-4.3l-50.6,1.5l-33.2,53.5c-1.4,2.2-1.7,5.2-0.7,7.8l117.6,301"
				/>
		</g>
		<line class="st14" x1="250.3" y1="300.3" x2="315.9" y2="447.3"/>
		<path class="st14" d="M486,140.4l-31.7-52.6c-1.2-1.9-3-3.1-5-3.1h-47.6l0,0"/>
		<line class="st14" x1="400.5" y1="85" x2="345.7" y2="246.2"/>
		<polyline class="st14" points="486,140.4 427.2,139.8 315.9,447.2 		"/>
		<line class="st15" x1="132.4" y1="447.2" x2="275" y2="83.4"/>
		<polygon points="13.1,141.7 48,85 138,316.1 224,83.4 275,83.4 132.4,447.2 		"/>
	</g>
</g>
<g id="Layer_2">
</g>
</svg>
